{
	"asset":{
		"generator":"Khronos glTF Blender I/O v3.6.27",
		"version":"2.0"
	},
	"extensionsUsed":[
		"KHR_lights_punctual"
	],
	"extensionsRequired":[
		"KHR_lights_punctual"
	],
	"extensions":{
		"KHR_lights_punctual":{
			"lights":[
				{
					"color":[
						1,
						1,
						1
					],
					"intensity":271.7570653294113,
					"type":"point",
					"name":"Sun"
				},
				{
					"color":[
						1,
						1,
						1
					],
					"intensity":271.7570653294113,
					"type":"point",
					"name":"Sun.001"
				},
				{
					"color":[
						1,
						1,
						1
					],
					"intensity":271.7570653294113,
					"type":"point",
					"name":"Sun.002"
				}
			]
		}
	},
	"scene":0,
	"scenes":[
		{
			"extras":{
				"t3dExportFormat__":2,
				"t3dExportLights__":true,
				"t3dExportCameras__":true,
				"t3dExportOnSave__":true,
				"t3dPackTextures__":true,
				"t3dCameraResolution__":[
					1920,
					1080
				],
				"t3dExportFilepath__":"",
				"t3dRenderResolutionW__":640,
				"t3dRenderResolutionH__":360,
				"t3dSectorRendering__":false,
				"t3dSectorRenderDepth__":0,
				"t3dPlaybackFPS__":60,
				"t3dAnimationSampling__":true,
				"t3dAnimationInterpolation__":true,
				"t3dCollections__":{},
				"t3dWorlds__":{
					"World":{
						"ambient color":[
							0.05126940459012985,
							0.05126941576600075,
							0.05126946046948433,
							1.0
						],
						"ambient energy":1.0,
						"clear color":[
							0.0,
							0.0,
							0.0,
							1.0
						]
					}
				},
				"t3dCurrentWorld__":"World"
			},
			"name":"Scene",
			"nodes":[
				0,
				1,
				2,
				3,
				4,
				5,
				6,
				7
			]
		}
	],
	"nodes":[
		{
			"camera":0,
			"extras":{
				"t3dOriginalLocalPosition__":[
					-38.416194915771484,
					-38.144039154052734,
					32.61078643798828
				]
			},
			"name":"Camera",
			"rotation":[
				-0.23929092288017273,
				-0.3680873215198517,
				-0.09862925857305527,
				0.8930419087409973
			],
			"translation":[
				-38.416194915771484,
				32.61078643798828,
				38.144039154052734
			]
		},
		{
			"extras":{
				"t3dOriginalLocalPosition__":[
					0.0,
					0.0,
					0.0
				]
			},
			"mesh":0,
			"name":"Plate"
		},
		{
			"extensions":{
				"KHR_lights_punctual":{
					"light":0
				}
			},
			"extras":{
				"t3dOriginalLocalPosition__":[
					0.0,
					0.0,
					10.0
				]
			},
			"name":"BoardLight",
			"rotation":[
				-0.8400154709815979,
				0.20608752965927124,
				-0.04691178351640701,
				0.4997011721134186
			],
			"translation":[
				0,
				10,
				0
			]
		},
		{
			"extras":{
				"t3dOriginalLocalPosition__":[
					0.0,
					0.0,
					-1.0
				]
			},
			"mesh":1,
			"name":"GreenPiece",
			"rotation":[
				-1,
				0,
				0,
				4.371138828673793e-08
			],
			"translation":[
				0,
				-1,
				0
			]
		},
		{
			"extensions":{
				"KHR_lights_punctual":{
					"light":1
				}
			},
			"extras":{
				"t3dOriginalLocalPosition__":[
					0.0,
					13.0,
					8.0
				]
			},
			"name":"Light1",
			"rotation":[
				-0.8400154709815979,
				0.20608752965927124,
				-0.04691178351640701,
				0.4997011721134186
			],
			"translation":[
				0,
				8,
				-13
			]
		},
		{
			"extensions":{
				"KHR_lights_punctual":{
					"light":2
				}
			},
			"extras":{
				"t3dOriginalLocalPosition__":[
					0.0,
					-13.0,
					8.0
				]
			},
			"name":"Light2",
			"rotation":[
				-0.8400154709815979,
				0.20608752965927124,
				-0.04691178351640701,
				0.4997011721134186
			],
			"translation":[
				0,
				8,
				13
			]
		},
		{
			"extras":{
				"t3dOriginalLocalPosition__":[
					0.0,
					0.0,
					-1.0
				]
			},
			"mesh":2,
			"name":"RedPiece",
			"rotation":[
				-1,
				0,
				0,
				4.371138828673793e-08
			],
			"translation":[
				0,
				-1,
				0
			]
		},
		{
			"extras":{
				"t3dOriginalLocalPosition__":[
					0.0,
					0.0,
					1.884392499923706
				]
			},
			"mesh":3,
			"name":"Table",
			"translation":[
				0,
				1.884392499923706,
				0
			]
		}
	],
	"cameras":[
		{
			"name":"Camera",
			"perspective":{
				"aspectRatio":1.7777777777777777,
				"yfov":0.39959652046304894,
				"zfar":1000,
				"znear":0.10000000149011612
			},
			"type":"perspective"
		}
	],
	"materials":[
		{
			"extras":{
				"t3dMaterialColor__":[
					1.0,
					0.8307690620422363,
					0.6307573318481445,
					1.0
				],
				"t3dMaterialFogless__":0
			},
			"name":"Material.002",
			"pbrMetallicRoughness":{
				"baseColorFactor":[
					1,
					0.8307690620422363,
					0.6307573318481445,
					1
				],
				"metallicFactor":0,
				"roughnessFactor":0.5
			}
		},
		{
			"extras":{
				"t3dMaterialColor__":[
					0.0,
					1.0,
					0.0,
					1.0
				]
			},
			"name":"Material.005",
			"pbrMetallicRoughness":{
				"baseColorFactor":[
					0,
					1,
					0,
					1
				],
				"metallicFactor":0,
				"roughnessFactor":0.5
			}
		},
		{
			"extras":{
				"t3dMaterialColor__":[
					1.0,
					0.0,
					0.0,
					1.0
				]
			},
			"name":"Material.004",
			"pbrMetallicRoughness":{
				"baseColorFactor":[
					1,
					0,
					0,
					1
				],
				"metallicFactor":0,
				"roughnessFactor":0.5
			}
		},
		{
			"doubleSided":true,
			"name":"Material.003",
			"pbrMetallicRoughness":{
				"baseColorTexture":{
					"index":0
				},
				"metallicFactor":0,
				"roughnessFactor":0.5
			}
		}
	],
	"meshes":[
		{
			"name":"Cube.002",
			"primitives":[
				{
					"attributes":{
						"POSITION":0,
						"NORMAL":1,
						"TEXCOORD_0":2
					},
					"indices":3,
					"material":0
				}
			]
		},
		{
			"name":"Cube.001",
			"primitives":[
				{
					"attributes":{
						"POSITION":4,
						"NORMAL":5,
						"TEXCOORD_0":6
					},
					"indices":7,
					"material":1
				}
			]
		},
		{
			"name":"Cube.005",
			"primitives":[
				{
					"attributes":{
						"POSITION":8,
						"NORMAL":9,
						"TEXCOORD_0":10
					},
					"indices":7,
					"material":2
				}
			]
		},
		{
			"name":"Cube.003",
			"primitives":[
				{
					"attributes":{
						"POSITION":11,
						"NORMAL":12,
						"TEXCOORD_0":13
					},
					"indices":14,
					"material":3
				}
			]
		}
	],
	"textures":[
		{
			"sampler":0,
			"source":0
		}
	],
	"images":[
		{
			"bufferView":15,
			"mimeType":"image/png",
			"name":"table"
		}
	],
	"accessors":[
		{
			"bufferView":0,
			"componentType":5126,
			"count":1485,
			"max":[
				8,
				0.6000000238418579,
				8
			],
			"min":[
				-8,
				-0.10000002384185791,
				-8
			],
			"type":"VEC3"
		},
		{
			"bufferView":1,
			"componentType":5126,
			"count":1485,
			"type":"VEC3"
		},
		{
			"bufferView":2,
			"componentType":5126,
			"count":1485,
			"type":"VEC2"
		},
		{
			"bufferView":3,
			"componentType":5123,
			"count":3186,
			"type":"SCALAR"
		},
		{
			"bufferView":4,
			"componentType":5126,
			"count":72,
			"max":[
				2,
				0.10000002384185791,
				2
			],
			"min":[
				0,
				-0.5,
				0
			],
			"type":"VEC3"
		},
		{
			"bufferView":5,
			"componentType":5126,
			"count":72,
			"type":"VEC3"
		},
		{
			"bufferView":6,
			"componentType":5126,
			"count":72,
			"type":"VEC2"
		},
		{
			"bufferView":7,
			"componentType":5123,
			"count":132,
			"type":"SCALAR"
		},
		{
			"bufferView":8,
			"componentType":5126,
			"count":72,
			"max":[
				2,
				0.10000002384185791,
				2
			],
			"min":[
				0,
				-0.5,
				0
			],
			"type":"VEC3"
		},
		{
			"bufferView":9,
			"componentType":5126,
			"count":72,
			"type":"VEC3"
		},
		{
			"bufferView":10,
			"componentType":5126,
			"count":72,
			"type":"VEC2"
		},
		{
			"bufferView":11,
			"componentType":5126,
			"count":774,
			"max":[
				19.68926239013672,
				-1.9858847856521606,
				19.68926239013672
			],
			"min":[
				-19.68926239013672,
				-33.79515075683594,
				-19.68926239013672
			],
			"type":"VEC3"
		},
		{
			"bufferView":12,
			"componentType":5126,
			"count":774,
			"type":"VEC3"
		},
		{
			"bufferView":13,
			"componentType":5126,
			"count":774,
			"type":"VEC2"
		},
		{
			"bufferView":14,
			"componentType":5123,
			"count":3552,
			"type":"SCALAR"
		}
	],
	"bufferViews":[
		{
			"buffer":0,
			"byteLength":17820,
			"byteOffset":0,
			"target":34962
		},
		{
			"buffer":0,
			"byteLength":17820,
			"byteOffset":17820,
			"target":34962
		},
		{
			"buffer":0,
			"byteLength":11880,
			"byteOffset":35640,
			"target":34962
		},
		{
			"buffer":0,
			"byteLength":6372,
			"byteOffset":47520,
			"target":34963
		},
		{
			"buffer":0,
			"byteLength":864,
			"byteOffset":53892,
			"target":34962
		},
		{
			"buffer":0,
			"byteLength":864,
			"byteOffset":54756,
			"target":34962
		},
		{
			"buffer":0,
			"byteLength":576,
			"byteOffset":55620,
			"target":34962
		},
		{
			"buffer":0,
			"byteLength":264,
			"byteOffset":56196,
			"target":34963
		},
		{
			"buffer":0,
			"byteLength":864,
			"byteOffset":56460,
			"target":34962
		},
		{
			"buffer":0,
			"byteLength":864,
			"byteOffset":57324,
			"target":34962
		},
		{
			"buffer":0,
			"byteLength":576,
			"byteOffset":58188,
			"target":34962
		},
		{
			"buffer":0,
			"byteLength":9288,
			"byteOffset":58764,
			"target":34962
		},
		{
			"buffer":0,
			"byteLength":9288,
			"byteOffset":68052,
			"target":34962
		},
		{
			"buffer":0,
			"byteLength":6192,
			"byteOffset":77340,
			"target":34962
		},
		{
			"buffer":0,
			"byteLength":7104,
			"byteOffset":83532,
			"target":34963
		},
		{
			"buffer":0,
			"byteLength":310113,
			"byteOffset":90636
		}
	],
	"samplers":[
		{
			"magFilter":9729,
			"minFilter":9987
		}
	],
	"buffers":[
		{
			"byteLength":400752,
			"uri":"data:application/octet-stream;base64,"
		}
	]
}
