{
	"asset":{
		"generator":"Khronos glTF Blender I/O v3.6.27",
		"version":"2.0"
	},
	"extensionsUsed":[
		"KHR_lights_punctual"
	],
	"extensionsRequired":[
		"KHR_lights_punctual"
	],
	"extensions":{
		"KHR_lights_punctual":{
			"lights":[
				{
					"color":[
						1,
						1,
						1
					],
					"intensity":683,
					"type":"directional",
					"name":"Sun"
				}
			]
		}
	},
	"scene":0,
	"scenes":[
		{
			"extras":{
				"t3dExportFormat__":2,
				"t3dExportLights__":true,
				"t3dExportCameras__":true,
				"t3dExportOnSave__":true,
				"t3dPackTextures__":true,
				"t3dCameraResolution__":[
					1920,
					1080
				],
				"t3dExportFilepath__":"",
				"t3dRenderResolutionW__":640,
				"t3dRenderResolutionH__":360,
				"t3dSectorRendering__":false,
				"t3dSectorRenderDepth__":0,
				"t3dPlaybackFPS__":60,
				"t3dAnimationSampling__":true,
				"t3dAnimationInterpolation__":true,
				"t3dCollections__":{},
				"t3dWorlds__":{
					"World":{
						"ambient color":[
							0.05087608844041824,
							0.05087608844041824,
							0.05087608844041824,
							1.0
						],
						"ambient energy":1.0
					}
				},
				"t3dCurrentWorld__":"World"
			},
			"name":"Scene",
			"nodes":[
				0,
				1,
				2
			]
		}
	],
	"nodes":[
		{
			"camera":0,
			"extras":{
				"t3dOriginalLocalPosition__":[
					-7.960841655731201,
					-7.960842132568359,
					6.5
				]
			},
			"name":"Camera",
			"rotation":[
				-0.2391175776720047,
				-0.36964380741119385,
				-0.09904573857784271,
				0.8923991322517395
			],
			"translation":[
				-7.960841655731201,
				6.5,
				7.960842132568359
			]
		},
		{
			"extras":{
				"t3dOriginalLocalPosition__":[
					0.0,
					0.0,
					0.0
				]
			},
			"mesh":0,
			"name":"Plate",
			"rotation":[
				0,
				1,
				0,
				0
			],
			"scale":[
				-3,
				-0.029999999329447746,
				-3
			]
		},
		{
			"extensions":{
				"KHR_lights_punctual":{
					"light":0
				}
			},
			"extras":{
				"t3dOriginalLocalPosition__":[
					0.0,
					0.0,
					2.6539151668548584
				]
			},
			"name":"Sun",
			"rotation":[
				-0.8400154709815979,
				0.20608752965927124,
				-0.04691178351640701,
				0.4997011721134186
			],
			"translation":[
				0,
				2.6539151668548584,
				0
			]
		}
	],
	"cameras":[
		{
			"name":"Camera",
			"perspective":{
				"aspectRatio":1.7777777777777777,
				"yfov":0.39959652046304894,
				"zfar":1000,
				"znear":0.10000000149011612
			},
			"type":"perspective"
		}
	],
	"materials":[
		{
			"doubleSided":true,
			"extras":{
				"t3dMaterialShadeless__":0
			},
			"name":"Material.001",
			"pbrMetallicRoughness":{
				"baseColorFactor":[
					0.800000011920929,
					0.800000011920929,
					0.800000011920929,
					1
				],
				"metallicFactor":0,
				"roughnessFactor":0.5
			}
		}
	],
	"meshes":[
		{
			"name":"Cube",
			"primitives":[
				{
					"attributes":{
						"POSITION":0,
						"NORMAL":1,
						"TEXCOORD_0":2
					},
					"indices":3,
					"material":0
				}
			]
		}
	],
	"accessors":[
		{
			"bufferView":0,
			"componentType":5126,
			"count":2113,
			"max":[
				1,
				1,
				1
			],
			"min":[
				-1,
				-2.350773811340332,
				-1
			],
			"type":"VEC3"
		},
		{
			"bufferView":1,
			"componentType":5126,
			"count":2113,
			"type":"VEC3"
		},
		{
			"bufferView":2,
			"componentType":5126,
			"count":2113,
			"type":"VEC2"
		},
		{
			"bufferView":3,
			"componentType":5123,
			"count":5343,
			"type":"SCALAR"
		}
	],
	"bufferViews":[
		{
			"buffer":0,
			"byteLength":25356,
			"byteOffset":0,
			"target":34962
		},
		{
			"buffer":0,
			"byteLength":25356,
			"byteOffset":25356,
			"target":34962
		},
		{
			"buffer":0,
			"byteLength":16904,
			"byteOffset":50712,
			"target":34962
		},
		{
			"buffer":0,
			"byteLength":10686,
			"byteOffset":67616,
			"target":34963
		}
	],
	"buffers":[
		{
			"byteLength":78304,
			"uri":"data:application/octet-stream;base64,"
		}
	]
}
